<svg width="240" height="280" viewBox="0 0 240 280" xmlns="http://www.w3.org/2000/svg">
  <defs>
    <linearGradient id="bg" x1="0" y1="0" x2="1" y2="1">
      <stop offset="0" stop-color="#09223b"/>
      <stop offset="1" stop-color="#21d7ff"/>
    </linearGradient>
  </defs>
  <rect width="240" height="280" rx="28" fill="url(#bg)"/>
  <circle cx="48" cy="52" r="4" fill="#fff2a9"/>
  <circle cx="61" cy="36" r="3" fill="#fff2a9"/>
  <circle cx="192" cy="50" r="5" fill="#fff2a9"/>
  <ellipse cx="120" cy="252" rx="56" ry="12" fill="#062036" opacity=".35"/>
  <path d="M88 111c11-18 25-28 42-28 18 0 34 10 46 30-8 9-17 15-28 20H98c-4-7-7-14-10-22Z" fill="#9fc8e9"/>
  <path d="M88 111 76 86l21 12M175 111l14-24-24 11" fill="#9fc8e9"/>
  <ellipse cx="122" cy="142" rx="48" ry="44" fill="#b7d7ef"/>
  <rect x="92" y="124" width="61" height="18" rx="9" fill="#1f304d"/>
  <rect x="97" y="128" width="20" height="10" rx="5" fill="#88ecff"/>
  <rect x="128" y="128" width="20" height="10" rx="5" fill="#88ecff"/>
  <path d="M106 166c11 7 22 7 31 0" stroke="#1f304d" stroke-width="6" stroke-linecap="round"/>
  <rect x="90" y="178" width="64" height="58" rx="22" fill="#27486a"/>
  <rect x="78" y="182" width="18" height="42" rx="9" fill="#27486a"/>
  <rect x="152" y="182" width="18" height="42" rx="9" fill="#27486a"/>
  <rect x="94" y="228" width="22" height="28" rx="11" fill="#86dcff"/>
  <rect x="136" y="228" width="22" height="28" rx="11" fill="#86dcff"/>
  <rect x="154" y="106" width="36" height="20" rx="4" fill="#8dffcb" stroke="#173e4b" stroke-width="4" transform="rotate(-20 172 116)"/>
  <circle cx="188" cy="210" r="12" fill="#ffd45a"/>
  <circle cx="188" cy="210" r="4" fill="#fff0b2"/>
</svg>
