<svg width="240" height="280" viewBox="0 0 240 280" xmlns="http://www.w3.org/2000/svg">
  <defs>
    <linearGradient id="bg" x1="0" y1="0" x2="1" y2="1">
      <stop offset="0" stop-color="#35114c"/>
      <stop offset="1" stop-color="#ff8f2b"/>
    </linearGradient>
  </defs>
  <rect width="240" height="280" rx="28" fill="url(#bg)"/>
  <circle cx="40" cy="42" r="18" fill="#ffd86f"/>
  <circle cx="188" cy="36" r="3" fill="#fff4c7"/>
  <circle cx="204" cy="72" r="4" fill="#fff4c7"/>
  <circle cx="56" cy="82" r="2.5" fill="#fff4c7"/>
  <ellipse cx="120" cy="250" rx="54" ry="12" fill="#1b1234" opacity=".35"/>
  <ellipse cx="119" cy="142" rx="52" ry="48" fill="#8de06b"/>
  <path d="M88 108c10-22 30-32 58-28 15 2 26 10 33 24-5 6-9 13-10 21H99c-2-5-6-11-11-17Z" fill="#68b8ff"/>
  <path d="M149 91c22 2 34 12 37 34l-23-7-14-27Z" fill="#6c47d9"/>
  <path d="M82 101c14-19 30-28 49-28 21 0 38 11 49 34l-17-4c-9-3-14-7-18-12-9-1-23 1-41 5l-22 5Z" fill="#7fd0ff"/>
  <circle cx="178" cy="116" r="10" fill="#f0fbff"/>
  <circle cx="178" cy="116" r="4" fill="#86cfff"/>
  <circle cx="110" cy="140" r="9" fill="#1e223a"/>
  <circle cx="145" cy="140" r="9" fill="#1e223a"/>
  <circle cx="108" cy="137" r="3" fill="#fff"/>
  <circle cx="143" cy="137" r="3" fill="#fff"/>
  <path d="M110 166c10 10 24 10 34 0" stroke="#1e223a" stroke-width="6" stroke-linecap="round"/>
  <rect x="90" y="178" width="70" height="58" rx="24" fill="#68b8ff"/>
  <rect x="79" y="184" width="18" height="42" rx="9" fill="#68b8ff"/>
  <rect x="153" y="184" width="18" height="42" rx="9" fill="#68b8ff"/>
  <rect x="92" y="228" width="22" height="28" rx="11" fill="#ffe2a9"/>
  <rect x="136" y="228" width="22" height="28" rx="11" fill="#ffe2a9"/>
  <circle cx="76" cy="192" r="18" fill="#d8eef9" stroke="#26364f" stroke-width="6"/>
  <rect x="93" y="189" width="16" height="6" rx="3" fill="#26364f"/>
  <path d="M68 220c10 12 23 16 39 16" stroke="#ffce6a" stroke-width="5" stroke-linecap="round"/>
</svg>
