<svg width="240" height="280" viewBox="0 0 240 280" xmlns="http://www.w3.org/2000/svg">
  <defs>
    <linearGradient id="bg" x1="0" y1="0" x2="1" y2="1">
      <stop offset="0" stop-color="#0c1b4f"/>
      <stop offset="1" stop-color="#26d8ff"/>
    </linearGradient>
  </defs>
  <rect width="240" height="280" rx="28" fill="url(#bg)"/>
  <text x="46" y="78" fill="#7ff6ea" font-size="64" font-family="Bungee, sans-serif" opacity=".82">67</text>
  <text x="96" y="124" fill="#4ad8ff" font-size="64" font-family="Bungee, sans-serif" opacity=".82">67</text>
  <circle cx="186" cy="44" r="5" fill="#fff"/>
  <circle cx="201" cy="68" r="3" fill="#fff"/>
  <ellipse cx="120" cy="252" rx="54" ry="12" fill="#081739" opacity=".35"/>
  <rect x="86" y="90" width="68" height="76" rx="34" fill="#85fff1"/>
  <rect x="102" y="72" width="38" height="24" rx="12" fill="#73ebff"/>
  <path d="M123 78 160 90 145 116 123 103Z" fill="#7851ff"/>
  <path d="M148 86 174 76 159 108Z" fill="#fff"/>
  <path d="M159 80 173 78 163 93Z" fill="#ff5d8f"/>
  <circle cx="110" cy="122" r="8" fill="#1c2952"/>
  <circle cx="139" cy="122" r="8" fill="#1c2952"/>
  <path d="M108 148c10 6 21 6 31 0" stroke="#1c2952" stroke-width="6" stroke-linecap="round"/>
  <rect x="91" y="170" width="58" height="54" rx="22" fill="#1ab9ff"/>
  <rect x="74" y="174" width="18" height="40" rx="9" fill="#85fff1"/>
  <rect x="148" y="174" width="18" height="44" rx="9" fill="#85fff1"/>
  <rect x="93" y="220" width="22" height="33" rx="11" fill="#73ebff"/>
  <rect x="132" y="220" width="22" height="33" rx="11" fill="#73ebff"/>
  <path d="M65 196c8-4 15-4 21 2 2 6 0 10-6 11-5 0-9-1-11-5h-6l2-8Z" fill="#dffaff"/>
  <path d="M63 196c1-9 7-14 18-15" stroke="#dffaff" stroke-width="5" stroke-linecap="round"/>
</svg>
