<svg width="120" height="140" viewBox="0 0 120 140" xmlns="http://www.w3.org/2000/svg">
  <ellipse cx="60" cy="130" rx="26" ry="6" fill="#11203a" opacity=".22"/>
  <ellipse cx="59" cy="64" rx="28" ry="26" fill="#8de06b"/>
  <path d="M41 43c8-18 20-25 37-24 12 1 21 7 26 20l-12 9H48l-7-5Z" fill="#74c7ff"/>
  <path d="M76 19c12 2 19 7 22 19l-12-4-10-15Z" fill="#6c47d9"/>
  <circle cx="51" cy="63" r="5" fill="#1f2741"/>
  <circle cx="69" cy="63" r="5" fill="#1f2741"/>
  <path d="M51 79c5 4 12 4 17 0" stroke="#1f2741" stroke-width="4" stroke-linecap="round"/>
  <rect x="43" y="83" width="34" height="30" rx="12" fill="#68b8ff"/>
  <rect x="37" y="87" width="10" height="24" rx="5" fill="#68b8ff"/>
  <rect x="74" y="87" width="10" height="24" rx="5" fill="#68b8ff"/>
  <rect x="45" y="108" width="12" height="20" rx="6" fill="#ffe2a9"/>
  <rect x="65" y="108" width="12" height="20" rx="6" fill="#ffe2a9"/>
</svg>
